<svg width="21" height="24" viewBox="0 0 21 24" fill="none" xmlns="http://www.w3.org/2000/svg">
<path d="M1.79483 21.5577V8.19871C1.79483 7.99255 1.83697 7.81448 1.91619 7.65118C1.98813 7.50292 2.10823 7.34669 2.30783 7.18808L10.1451 1.24627C10.4226 1.06622 10.6679 1 10.8955 1C11.1232 1 11.3702 1.06626 11.6509 1.24715L19.487 7.18807C19.6866 7.34668 19.8067 7.50292 19.8786 7.65118C19.9579 7.81447 20 7.99254 20 8.19871V21.5577C20 21.7349 19.9461 21.8831 19.7832 22.046C19.6202 22.209 19.4721 22.2628 19.2948 22.2628H14.6618H2.49291C2.32447 22.2628 2.17778 22.2115 2.0118 22.0457C1.84861 21.8826 1.79483 21.7346 1.79483 21.5577Z" stroke="white" stroke-width="2"/>
</svg>
